Coordinates
version=1
nRows=40
nColumns=38
inDegrees=no

Units are S.I. units (second, meters, Newtons, ...)
If the header above contains a line with 'inDegrees', this indicates whether rotational values are in degrees (yes) or radians (no).

endheader
time	pelvis_tilt	pelvis_list	pelvis_rotation	pelvis_tx	pelvis_ty	pelvis_tz	hip_flexion_r	hip_adduction_r	hip_rotation_r	knee_angle_r	ankle_angle_r	subtalar_angle_r	mtp_angle_r	hip_flexion_l	hip_adduction_l	hip_rotation_l	knee_angle_l	ankle_angle_l	subtalar_angle_l	mtp_angle_l	lumbar_extension	lumbar_bending	lumbar_rotation	arm_flex_r	arm_add_r	arm_rot_r	elbow_flex_r	pro_sup_r	wrist_flex_r	wrist_dev_r	arm_flex_l	arm_add_l	arm_rot_l	elbow_flex_l	pro_sup_l	wrist_flex_l	wrist_dev_l
0	-3.02504	1.51942	1.209	0.81776	1.5126	0.92497	0.023522	0.0224797	0.120279	0.562955	0.236512	0	0	0.534511	-0.178035	-0.444208	0.433224	0.121627	0	0	-0.0754154	0.0125102	0.0259961	-0.183158	-0.0344615	-0.595766	0.354713	1.22137	0	0	-0.233346	-0.334717	0.36034	0.645325	0.564535	0	0
0.01	-3.01604	1.5177	1.1953	0.818716	1.50151	0.924092	0.0308902	0.0200063	0.124573	0.594898	0.231353	0	0	0.535015	-0.181093	-0.443155	0.456671	0.130669	0	0	-0.0665188	0.0129906	0.0339534	-0.19277	-0.0365308	-0.592522	0.355175	1.20917	0	0	-0.243471	-0.330916	0.354709	0.648958	0.56269	0	0
0.02	-3.02713	1.51733	1.20303	0.819866	1.48984	0.923414	0.0385138	0.014642	0.125078	0.62919	0.22361	0	0	0.531578	-0.180359	-0.443439	0.473658	0.134146	0	0	-0.0577038	0.0119897	0.0384316	-0.203462	-0.0388353	-0.583722	0.356788	1.18759	0	0	-0.257042	-0.326078	0.343292	0.653676	0.56734	0	0
0.03	-3.10078	1.51766	1.27621	0.821269	1.47789	0.922645	0.0532684	0.000107309	0.106991	0.674343	0.214563	0	0	0.526797	-0.172978	-0.442345	0.484309	0.127656	0	0	-0.0479038	0.00691871	0.0392606	-0.214413	-0.0399293	-0.57644	0.358039	1.16961	0	0	-0.272087	-0.323528	0.334351	0.660706	0.571573	0	0
0.04	-3.12302	1.51918	1.30129	0.823016	1.46599	0.922601	0.0589326	-0.00408472	0.111463	0.70793	0.195667	0	0	0.519457	-0.164837	-0.436124	0.489576	0.110277	0	0	-0.0417038	0.00458921	0.0394159	-0.208256	-0.0354848	-0.67965	0.33438	1.31135	0	0	-0.283161	-0.321445	0.331635	0.666284	0.56544	0	0
0.05	3.0392	1.5204	1.42789	0.824988	1.45419	0.922316	0.0769705	-0.0224516	0.0883134	0.75815	0.174463	0	0	0.51422	-0.150352	-0.427937	0.494846	0.0911277	0	0	-0.0339247	-0.00409088	0.0345786	-0.215416	-0.0342791	-0.68939	0.330915	1.31783	0	0	-0.297334	-0.321907	0.326362	0.676069	0.566015	0	0
0.06	2.93983	1.52278	1.53495	0.827105	1.44269	0.922624	0.0924139	-0.0338213	0.0789819	0.806081	0.143658	0	0	0.508592	-0.137267	-0.4176	0.504095	0.0791133	0	0	-0.0298522	-0.0117023	0.0282086	-0.22079	-0.0331208	-0.69742	0.325669	1.32231	0	0	-0.308838	-0.322683	0.322898	0.684374	0.565521	0	0
0.07	2.88912	1.5271	1.59377	0.829204	1.43151	0.923554	0.104535	-0.0328765	0.089893	0.851287	0.105487	0	0	0.501875	-0.128205	-0.405732	0.518303	0.0763125	0	0	-0.0296049	-0.0162983	0.0211802	-0.232065	-0.0342127	-0.652689	0.329474	1.2548	0	0	-0.317728	-0.321966	0.317946	0.689329	0.571961	0	0
0.08	2.65704	1.52747	1.83485	0.831216	1.42026	0.923758	0.133944	-0.0564454	0.0641522	0.917228	0.062457	0	0	0.497158	-0.111311	-0.396073	0.533527	0.0779527	0	0	-0.026782	-0.02988	0.0151075	-0.229541	-0.0289847	-0.713406	0.310888	1.32904	0	0	-0.328724	-0.329203	0.323736	0.705648	0.558722	0	0
0.09	2.53514	1.53203	1.96242	0.833066	1.40945	0.924869	0.151905	-0.0525113	0.0820566	0.969608	0.0141506	0	0	0.48614	-0.103223	-0.389381	0.545828	0.0783595	0	0	-0.0297605	-0.0351948	0.0117949	-0.24011	-0.0289355	-0.675427	0.315597	1.27257	0	0	-0.334427	-0.329508	0.320959	0.710125	0.570966	0	0
0.1	2.22874	1.52994	2.27382	0.834844	1.39849	0.925217	0.183728	-0.0769695	0.0633354	1.03648	-0.0389943	0	0	0.47309	-0.0864679	-0.388869	0.552921	0.0772983	0	0	-0.0309444	-0.0498405	0.0101704	-0.245835	-0.0250149	-0.686115	0.312557	1.28098	0	0	-0.342539	-0.336505	0.325916	0.724105	0.57014	0	0
0.11	1.99815	1.52706	2.50764	0.83654	1.38791	0.925829	0.211737	-0.0877901	0.0656996	1.09537	-0.0932288	0	0	0.457203	-0.0734469	-0.391545	0.556207	0.0758273	0	0	-0.0337844	-0.0608569	0.0106196	-0.251055	-0.0220065	-0.695076	0.311561	1.2884	0	0	-0.347772	-0.342147	0.331329	0.735041	0.567841	0	0
0.12	1.80813	1.52511	2.69748	0.837977	1.37784	0.926776	0.235775	-0.0835856	0.0884235	1.14731	-0.148199	0	0	0.437726	-0.0648585	-0.399252	0.555634	0.0767952	0	0	-0.0388331	-0.0684152	0.014731	-0.255435	-0.0196937	-0.701977	0.313335	1.2928	0	0	-0.349581	-0.348511	0.344436	0.745273	0.551662	0	0
0.13	1.66103	1.51935	2.84659	0.839676	1.3678	0.92734	0.264137	-0.0933167	0.0897196	1.19955	-0.198996	0	0	0.419898	-0.0530946	-0.406551	0.554543	0.0820803	0	0	-0.0417571	-0.0778752	0.0151563	-0.259548	-0.0175445	-0.70793	0.316013	1.30001	0	0	-0.352028	-0.352196	0.347913	0.750895	0.552035	0	0
0.14	1.54007	1.5134	2.96926	0.841404	1.35807	0.928112	0.290073	-0.101957	0.091167	1.24614	-0.247405	0	0	0.400625	-0.0413487	-0.413534	0.551048	0.0894989	0	0	-0.0455836	-0.0865164	0.0154255	-0.262571	-0.0158313	-0.712335	0.319637	1.30627	0	0	-0.352627	-0.35581	0.353737	0.755021	0.552732	0	0
0.15	1.42868	1.50992	3.08262	0.844224	1.34869	0.929175	0.316461	-0.119535	0.0983432	1.28433	-0.277596	0	0	0.381002	-0.0279989	-0.415941	0.545984	0.0946361	0	0	-0.0516341	-0.0898621	0.015012	-0.263921	-0.0165157	-0.715067	0.322851	1.31282	0	0	-0.350554	-0.357449	0.362035	0.757246	0.553669	0	0
0.16	1.32533	1.50512	-3.09471	0.846098	1.33906	0.930438	0.337653	-0.124933	0.100933	1.32273	-0.292359	0	0	0.359055	-0.0163789	-0.418782	0.537539	0.100241	0	0	-0.0577021	-0.0954075	0.0134207	-0.263234	-0.01642	-0.717229	0.322887	1.32287	0	0	-0.346997	-0.360067	0.371331	0.755738	0.552684	0	0
0.17	1.22247	1.50173	-2.988	0.847696	1.33046	0.932283	0.356161	-0.127454	0.100647	1.35842	-0.283242	0	0	0.335052	-0.00611166	-0.418377	0.526529	0.105828	0	0	-0.0644427	-0.0989966	0.00906683	-0.265304	-0.0178664	-0.686031	0.326086	1.28788	0	0	-0.342613	-0.361678	0.379508	0.750362	0.556482	0	0
0.18	1.12725	1.50062	-2.88746	0.849315	1.32156	0.934169	0.373435	-0.126484	0.0974079	1.38884	-0.260382	0	0	0.312359	0.00114421	-0.415398	0.516569	0.112281	0	0	-0.0708577	-0.0990691	0.00331721	-0.26283	-0.0190564	-0.68004	0.322046	1.28281	0	0	-0.337765	-0.362346	0.386601	0.745016	0.558472	0	0
0.19	1.02712	1.5011	-2.78065	0.850942	1.31279	0.93622	0.389062	-0.122732	0.0918872	1.41285	-0.236485	0	0	0.289989	0.00592586	-0.410692	0.506657	0.118726	0	0	-0.077259	-0.0964377	-0.0037093	-0.260306	-0.0202999	-0.674643	0.31751	1.2767	0	0	-0.332883	-0.362616	0.392233	0.740183	0.559299	0	0
0.2	0.920464	1.50221	-2.66592	0.852526	1.30411	0.938379	0.403389	-0.117393	0.0847568	1.43051	-0.217763	0	0	0.26758	0.00936027	-0.404474	0.495573	0.124079	0	0	-0.0835418	-0.0920546	-0.0118658	-0.258377	-0.0215407	-0.667015	0.312994	1.26753	0	0	-0.327796	-0.36271	0.397742	0.736063	0.560562	0	0
0.21	0.809719	1.50225	-2.54673	0.854345	1.29556	0.940687	0.416223	-0.111826	0.0779791	1.44222	-0.20492	0	0	0.243196	0.0136865	-0.39593	0.480145	0.127027	0	0	-0.0904383	-0.0875039	-0.0193481	-0.253145	-0.0216334	-0.68527	0.302649	1.29127	0	0	-0.321447	-0.36434	0.408064	0.734114	0.551419	0	0
0.22	0.704237	1.50277	-2.43216	0.856135	1.28713	0.942868	0.429427	-0.105171	0.0713678	1.44893	-0.19723	0	0	0.220087	0.016659	-0.387678	0.464565	0.129801	0	0	-0.0962841	-0.0817982	-0.0276113	-0.252773	-0.0220627	-0.679644	0.300218	1.28401	0	0	-0.316004	-0.36485	0.412973	0.732819	0.548611	0	0
0.23	0.60625	1.50297	-2.3245	0.857965	1.27886	0.944939	0.442743	-0.0988913	0.0649455	1.4512	-0.193132	0	0	0.197299	0.0196672	-0.379167	0.447459	0.13227	0	0	-0.101604	-0.0759655	-0.0361505	-0.253431	-0.0219481	-0.673264	0.299985	1.27592	0	0	-0.310611	-0.365647	0.417153	0.733206	0.547103	0	0
0.24	0.516109	1.50258	-2.22486	0.859773	1.27073	0.946894	0.455889	-0.0930897	0.0590018	1.44959	-0.1901	0	0	0.174557	0.0226466	-0.371081	0.429443	0.134662	0	0	-0.106609	-0.0704351	-0.0445811	-0.254823	-0.0213645	-0.666402	0.301862	1.26629	0	0	-0.305448	-0.366788	0.420642	0.735083	0.547957	0	0
0.25	0.433866	1.50164	-2.13318	0.861551	1.26273	0.948705	0.468399	-0.0879868	0.0532711	1.44407	-0.186999	0	0	0.151765	0.0256675	-0.362788	0.410603	0.136739	0	0	-0.111535	-0.0652122	-0.0531069	-0.257212	-0.020246	-0.658468	0.307075	1.25478	0	0	-0.300527	-0.368051	0.422518	0.737643	0.551073	0	0
0.26	0.362418	1.49958	-2.05194	0.863398	1.25483	0.950435	0.479332	-0.084838	0.0471082	1.43466	-0.181534	0	0	0.127501	0.0300132	-0.352078	0.388885	0.137883	0	0	-0.117101	-0.0607245	-0.0623363	-0.25983	-0.0187834	-0.648845	0.314476	1.24233	0	0	-0.295846	-0.369202	0.421973	0.740348	0.555352	0	0
0.27	0.299069	1.49833	-1.97915	0.865178	1.24706	0.951886	0.490637	-0.0819723	0.0406538	1.42207	-0.173511	0	0	0.105783	0.0327763	-0.343638	0.370032	0.140008	0	0	-0.121389	-0.0560412	-0.0713287	-0.261693	-0.0173348	-0.640491	0.321077	1.23289	0	0	-0.291408	-0.370223	0.42013	0.74319	0.56002	0	0
0.28	0.242545	1.49741	-1.9136	0.866911	1.23939	0.953115	0.501595	-0.0796563	0.0340647	1.40636	-0.162909	0	0	0.0853791	0.0349713	-0.335804	0.352377	0.142186	0	0	-0.124898	-0.0515686	-0.0802531	-0.262777	-0.0160295	-0.630881	0.327121	1.22235	0	0	-0.287295	-0.371309	0.4177	0.746521	0.565516	0	0
0.29	0.187722	1.49747	-1.8501	0.868409	1.23175	0.954019	0.512894	-0.0770226	0.027618	1.38773	-0.150188	0	0	0.0683384	0.0355689	-0.330514	0.338897	0.145777	0	0	-0.127065	-0.0469874	-0.0891256	-0.263227	-0.0148489	-0.619903	0.332709	1.21005	0	0	-0.283232	-0.372546	0.415616	0.749806	0.570351	0	0
0.3	0.168789	1.49267	-1.82315	0.87025	1.22405	0.955313	0.51781	-0.0794243	0.0222742	1.36546	-0.13472	0	0	0.0384252	0.0449925	-0.309157	0.305679	0.139968	0	0	-0.13399	-0.0460462	-0.0970307	-0.256809	-0.011455	-0.652452	0.329789	1.26438	0	0	-0.277831	-0.372633	0.410172	0.750493	0.587218	0	0
0.31	0.139789	1.49156	-1.78504	0.871901	1.21665	0.956047	0.525535	-0.0798644	0.0157865	1.34046	-0.120282	0	0	0.0189491	0.0486639	-0.294982	0.286806	0.13952	0	0	-0.137337	-0.0433936	-0.106441	-0.254751	-0.0100783	-0.64525	0.332641	1.25867	0	0	-0.272682	-0.37439	0.409074	0.7524	0.591417	0	0
0.32	0.116918	1.49115	-1.75453	0.873355	1.20926	0.956577	0.533159	-0.0797207	0.0109593	1.31239	-0.106314	0	0	0.000685963	0.0520633	-0.281151	0.268507	0.138872	0	0	-0.139568	-0.0412789	-0.114208	-0.25154	-0.00885511	-0.638311	0.333178	1.25241	0	0	-0.266516	-0.376297	0.410909	0.752482	0.594878	0	0
0.33	0.0994209	1.4915	-1.73071	0.87465	1.20196	0.956923	0.54061	-0.0790114	0.00757716	1.28119	-0.093449	0	0	-0.0164444	0.0552838	-0.268028	0.25068	0.138236	0	0	-0.14087	-0.0396031	-0.120451	-0.247518	-0.00774519	-0.631142	0.332434	1.24614	0	0	-0.259431	-0.378103	0.414493	0.751083	0.596871	0	0
0.34	0.0862976	1.49202	-1.71202	0.87585	1.19477	0.957132	0.547196	-0.0780884	0.00490773	1.24728	-0.0828223	0	0	-0.0325326	0.058403	-0.255179	0.234288	0.137842	0	0	-0.142118	-0.0383045	-0.125577	-0.243304	-0.00678961	-0.623178	0.332061	1.23968	0	0	-0.251791	-0.380334	0.417465	0.750508	0.596657	0	0
0.35	0.0764314	1.49299	-1.69751	0.876933	1.18764	0.957183	0.553221	-0.0768138	0.00302343	1.211	-0.0742235	0	0	-0.047503	0.0613176	-0.243006	0.219074	0.137491	0	0	-0.142858	-0.0372221	-0.129588	-0.238895	-0.00605202	-0.614492	0.331952	1.23302	0	0	-0.243216	-0.382641	0.422271	0.749102	0.596968	0	0
0.36	0.0666703	1.49455	-1.68379	0.877877	1.18049	0.957054	0.558762	-0.0751251	0.00124476	1.1725	-0.0664482	0	0	-0.0611347	0.0636637	-0.232142	0.205386	0.137366	0	0	-0.142835	-0.0361076	-0.132586	-0.234027	-0.00550417	-0.605831	0.330994	1.22611	0	0	-0.233636	-0.38495	0.429479	0.746365	0.598098	0	0
0.37	0.0551033	1.49681	-1.66901	0.878715	1.17341	0.956742	0.564075	-0.0729818	-0.000425054	1.13203	-0.0592998	0	0	-0.0726103	0.0652513	-0.223772	0.194512	0.138274	0	0	-0.142128	-0.0347868	-0.134419	-0.228929	-0.00502786	-0.597503	0.329926	1.21882	0	0	-0.223294	-0.387296	0.438112	0.742994	0.599881	0	0
0.38	0.0405154	1.50007	-1.65154	0.879353	1.16633	0.956205	0.569503	-0.0707245	-0.0027989	1.08989	-0.0530649	0	0	-0.0804691	0.0657725	-0.219318	0.188653	0.141379	0	0	-0.140356	-0.0332357	-0.13576	-0.223989	-0.00443343	-0.589758	0.329832	1.21149	0	0	-0.213056	-0.38934	0.445443	0.740018	0.601675	0	0
0.39	0.041275	1.49806	-1.65159	0.88025	1.15897	0.956173	0.567003	-0.0701485	-0.005261	1.04545	-0.0451469	0	0	-0.107285	0.0721579	-0.193833	0.155414	0.129859	0	0	-0.143978	-0.0328544	-0.133871	-0.222128	-0.00523429	-0.565876	0.33495	1.18181	0	0	-0.19971	-0.391433	0.459876	0.734311	0.600546	0	0
